<?xml version="1.0" encoding="UTF-8"?>
<svg version="1.1" xmlns="http://www.w3.org/2000/svg" width="500" height="408">
<path d="M0 0 C0.86227176 -0.00260775 1.72454352 -0.00521549 2.61294472 -0.00790226 C4.03457368 -0.00455618 4.03457368 -0.00455618 5.48492241 -0.0011425 C6.491334 -0.00270249 7.49774559 -0.00426248 8.5346545 -0.00586975 C11.92262267 -0.0098732 15.3105464 -0.00669262 18.69851494 -0.00355339 C21.1209497 -0.0049077 23.54338425 -0.0066878 25.96581841 -0.00886345 C31.87132285 -0.01295864 37.77681565 -0.01234729 43.68231978 -0.00945081 C48.47962876 -0.00719497 53.27693418 -0.00688504 58.07424355 -0.00797462 C59.09730905 -0.00820447 59.09730905 -0.00820447 60.14104255 -0.00843897 C61.52645422 -0.00875868 62.91186589 -0.00908289 64.29727755 -0.00941156 C77.29456577 -0.01226457 90.29184695 -0.0089819 103.28913401 -0.00361119 C114.45229056 0.00085869 125.61543671 0.00007905 136.77859306 -0.00452995 C149.73159452 -0.00987541 162.68458979 -0.01199201 175.6375922 -0.00891769 C177.01737523 -0.00859913 178.39715826 -0.00828476 179.7769413 -0.00797462 C180.45588675 -0.00782035 181.1348322 -0.00766607 181.83435176 -0.00750712 C186.62941779 -0.00664203 191.42447993 -0.00810464 196.21954536 -0.01045418 C202.66596719 -0.01354336 209.11237395 -0.01136002 215.55879402 -0.00555992 C217.93206054 -0.00423161 220.30532871 -0.00462763 222.67859459 -0.00682259 C225.9032853 -0.00953126 229.12791165 -0.00615648 232.35259819 -0.0011425 C233.30481227 -0.00337322 234.25702635 -0.00560395 235.2380954 -0.00790226 C241.67762668 0.01169116 241.67762668 0.01169116 242.79177666 1.12584114 C242.88869729 3.26477381 242.91364468 5.40697081 242.91203117 7.54809761 C242.91331281 8.56618379 242.91331281 8.56618379 242.91462034 9.60483736 C242.91627707 11.8958004 242.91075066 14.1866914 242.90530205 16.47764778 C242.90502019 18.11324245 242.90517788 19.74883724 242.90574455 21.38443184 C242.90603259 25.838787 242.9001349 30.29311548 242.8931706 34.74746442 C242.88693805 39.39730588 242.88633334 44.04714788 242.88514519 48.69699287 C242.88203158 57.50845817 242.87381779 66.31991112 242.8637957 75.13137096 C242.85263548 85.16022222 242.84712434 95.18907405 242.84210026 105.21792996 C242.8316352 125.85390725 242.81403519 146.48987342 242.79177666 167.12584114 C242.13469656 167.11993336 241.47761646 167.11402557 240.80062485 167.10793877 C224.75599546 166.96785076 208.71264306 166.89492486 192.6674614 166.89524651 C184.90773732 166.89381 177.14929423 166.8702766 169.38992119 166.79332161 C162.62068898 166.72624412 155.85283799 166.70205439 149.08329976 166.72774625 C145.50360001 166.73987682 141.92674883 166.73163539 138.34746742 166.67188454 C120.03260103 165.80481125 120.03260103 165.80481125 104.34695244 173.82603645 C102.87682131 175.34315895 101.50355221 176.89186287 100.16324043 178.52443886 C97.72303691 181.37376493 94.88710801 183.80628122 92.10427666 186.31334114 C91.02468557 187.31697473 89.94636544 188.32197904 88.86990166 189.32896614 C86.12133762 191.85846654 83.27011942 194.22725658 80.35427666 196.56334114 C74.64599886 201.14498516 69.34881627 206.1138655 64.01443291 211.11802864 C60.97709859 213.96503621 57.87703343 216.72683263 54.72146416 219.44224739 C52.33287119 221.52622222 50.00489978 223.67295247 47.66677666 225.81334114 C38.44642683 234.12584114 38.44642683 234.12584114 34.79177666 234.12584114 C33.83200883 219.55186954 33.66974082 205.04034702 33.72927666 190.43834114 C33.73430831 188.26060781 33.73886824 186.08287334 33.74294853 183.90513802 C33.75294439 178.64531982 33.77254122 173.38566549 33.79177666 168.12584114 C13.49677666 167.63084114 13.49677666 167.63084114 -7.20822334 167.12584114 C-8.577232 164.38782384 -8.33416757 162.21694089 -8.33520699 159.15088081 C-8.33802681 157.87666267 -8.34084663 156.60244453 -8.34375191 155.28961372 C-8.34180732 153.86921869 -8.33975914 152.44882379 -8.33761787 151.02842903 C-8.33897237 149.53861129 -8.34075257 148.04879389 -8.34292793 146.55897713 C-8.34750008 142.50269291 -8.34571266 138.44643404 -8.34254885 134.39014935 C-8.3400199 130.14184389 -8.34236468 125.89354061 -8.34393501 121.64523506 C-8.34575692 114.50033873 -8.3433517 107.35545271 -8.33859444 100.21055794 C-8.33317049 91.96964245 -8.33490074 83.72875177 -8.34042084 75.4878369 C-8.34497377 68.4057278 -8.34559131 61.32362614 -8.34298217 54.24151605 C-8.34142895 50.01524572 -8.34119896 45.78898701 -8.34451866 41.56271744 C-8.3474284 37.57941988 -8.34536518 33.5961539 -8.3396244 29.61285973 C-8.33831253 28.15811465 -8.33866386 26.70336687 -8.34088707 25.24862289 C-8.35211538 17.1481145 -8.13067035 9.17760686 -7.20822334 1.12584114 C-4.45162738 0.20697582 -2.8387073 0.00061811 0 0 Z M35.29177666 71.75084114 C32.49849949 78.03571476 30.8705087 84.24926725 32.85427666 91.00084114 C35.04459269 96.4281729 38.98670335 99.92245894 43.79177666 103.12584114 C49.43305146 105.00626607 55.57361296 104.90630614 61.16677666 102.93834114 C65.81492298 99.72890678 69.2476075 96.17814307 71.79177666 91.12584114 C72.62740181 84.58011081 72.90462135 77.56540993 68.79177666 72.12584114 C63.96247523 67.20114611 59.60733604 64.16665868 52.60427666 63.68834114 C45.75967995 63.86002835 39.96679035 66.84207676 35.29177666 71.75084114 Z M99.79177666 73.12584114 C96.94946369 79.00062182 96.52022963 85.98379574 98.44412041 92.25084114 C101.21666251 97.58173754 106.09393592 102.2265609 111.79177666 104.12584114 C119.19143729 105.00357866 124.87108167 104.67668853 130.87771416 100.02427864 C135.24754402 95.69012085 137.98894984 90.89731489 138.41677666 84.68834114 C138.01959755 78.55890136 135.44959263 72.71839823 131.04177666 68.41880989 C120.51291454 60.54485482 107.90934723 63.33700604 99.79177666 73.12584114 Z M166.79177666 71.12584114 C163.61611906 76.37709194 161.46700577 81.9473838 162.79177666 88.12584114 C165.31906737 94.97231312 168.25729619 99.42886256 174.58474541 103.19224739 C179.65296942 105.336151 186.12188851 105.16795877 191.21365166 103.18052864 C196.77476477 99.85640464 201.05525729 95.49307882 202.79177666 89.12584114 C203.45353626 83.07712614 202.9577725 77.42108067 199.79177666 72.12584114 C194.99067705 66.65792214 190.112616 64.38939982 182.85427666 63.81334114 C176.60862422 63.9921289 171.11988858 66.68075322 166.79177666 71.12584114 Z " fill="#19A0EE" transform="translate(117.20822334289551,54.87415885925293)"/>
<path d="M0 0 C10.56 0 21.12 0 32 0 C33.34529749 2.69059499 33.12592516 4.76267876 33.12698364 7.77650452 C33.12980347 9.00627518 33.13262329 10.23604584 33.13552856 11.50308228 C33.1335841 12.87323013 33.13153592 14.24337783 33.12939453 15.61352539 C33.13074894 17.05060368 33.13252909 18.48768163 33.13470459 19.92475891 C33.13927382 23.83368249 33.13749156 27.74257975 33.1343255 31.6515038 C33.13179977 35.7349907 33.13413999 39.8184753 33.13571167 43.90196228 C33.13753253 50.7592713 33.13512902 57.61656956 33.13037109 64.47387695 C33.12492647 72.4127959 33.12669292 80.35168918 33.1321975 88.29060751 C33.13672841 95.09655416 33.13737935 101.90249306 33.13475883 108.70844072 C33.13319622 112.77789667 33.13300191 116.84734054 33.13629532 120.91679573 C33.13917379 124.74083222 33.13719879 128.56483545 33.13140106 132.38886833 C33.13007343 133.79621195 33.13046764 135.20355835 33.13266373 136.61090088 C33.13537501 138.52409264 33.1313806 140.43729049 33.12698364 142.35047913 C33.1264181 143.96018129 33.1264181 143.96018129 33.12584114 145.60240269 C33 148 33 148 32 149 C29.26129758 149.08857875 26.54725017 149.11530707 23.80859375 149.09765625 C23.08224731 149.09664917 22.35590088 149.09564209 21.60754395 149.09460449 C18.88417999 149.08935716 16.16083847 149.075396 13.4375 149.0625 C7.353125 149.041875 1.26875 149.02125 -5 149 C-5 168.47 -5 187.94 -5 208 C-10.62598023 205.74960791 -10.62598023 205.74960791 -13.19921875 203.49609375 C-13.76342529 203.00729736 -14.32763184 202.51850098 -14.90893555 202.01489258 C-15.49586182 201.49435303 -16.08278809 200.97381348 -16.6875 200.4375 C-17.30471924 199.89955811 -17.92193848 199.36161621 -18.55786133 198.80737305 C-22.9512309 194.96638453 -27.27580675 191.05040295 -31.59375 187.125 C-34.06757898 184.94031986 -36.61048046 182.87411563 -39.1875 180.8125 C-45.24745881 175.91460716 -50.87081352 170.58735644 -56.5390625 165.24609375 C-60.2736584 161.72970122 -64.08080298 158.30973225 -68 155 C-68.83149567 154.15709915 -69.66299133 153.3141983 -70.51968384 152.445755 C-74.55831367 149.10856901 -78.43076138 149.29072945 -83.49365234 149.34057617 C-84.43087128 149.33009247 -85.36809021 149.31960876 -86.33370972 149.30880737 C-89.41812444 149.28010597 -92.50141342 149.2863433 -95.5859375 149.29296875 C-97.72972009 149.27985078 -99.87349032 149.26454626 -102.01724243 149.24714661 C-107.64954142 149.20729564 -113.28151708 149.19710604 -118.91394043 149.19311523 C-124.66538298 149.18378408 -130.41663555 149.14637055 -136.16796875 149.11132812 C-147.44530363 149.04675111 -158.72249641 149.01351188 -170 149 C-170 146 -170 146 -168.63671875 144.2734375 C-163.9493897 139.70822324 -159.05732466 135.53722675 -153.953125 131.4453125 C-150.16368572 128.30749638 -146.5600158 124.99384708 -142.97167969 121.62963867 C-138.84704473 117.77974635 -136.44172638 115.75153173 -130.73085022 115.74171448 C-129.63866684 115.73488647 -128.54648346 115.72805847 -127.42120361 115.72102356 C-126.22267761 115.72357651 -125.02415161 115.72612946 -123.78930664 115.72875977 C-121.85217681 115.72073673 -119.91504699 115.71271127 -117.97791755 115.70459449 C-115.89513428 115.69773641 -113.81239489 115.69573911 -111.72960091 115.69503975 C-107.38895257 115.69310008 -103.0484641 115.67505287 -98.70787048 115.65428162 C-87.92624292 115.6050791 -77.14457192 115.57420216 -66.362854 115.55297852 C-57.98470219 115.53646095 -49.60668724 115.51366224 -41.22862715 115.46995777 C-36.91358097 115.4481656 -32.59879467 115.44012499 -28.28369725 115.44235051 C-24.96908637 115.44029334 -21.65464783 115.41893974 -18.34008789 115.40063477 C-17.14358612 115.40521194 -15.94708435 115.40978912 -14.71432495 115.414505 C-13.61932175 115.40485718 -12.52431854 115.39520935 -11.39613342 115.38526917 C-10.44505235 115.38325784 -9.49397127 115.38124651 -8.51406956 115.37917423 C-5.51203395 114.92640452 -4.14229695 114.13395867 -2 112 C-1.52218095 109.25322493 -1.30472113 106.88849092 -1.25390625 104.12817383 C-1.21083092 102.93529991 -1.21083092 102.93529991 -1.16688538 101.71832752 C-1.08450213 99.14539674 -1.03643503 96.57397286 -1 94 C-0.98781433 93.17023525 -0.97562866 92.3404705 -0.96307373 91.48556137 C-0.90034555 86.24578648 -0.90107085 81.0072786 -0.92483521 75.76724815 C-0.93785513 72.87020006 -0.9441764 69.97319885 -0.94897461 67.0761261 C-0.96025752 60.94656249 -0.97955618 54.81703898 -1 48.6875 C-1.02367614 41.53090009 -1.04398641 34.37432129 -1.05593872 27.21769142 C-1.06239654 24.36984426 -1.07489089 21.522065 -1.08764648 18.67424011 C-1.09127776 16.9334621 -1.09462964 15.19268347 -1.09765625 13.4519043 C-1.10282257 12.66594376 -1.10798889 11.87998322 -1.11331177 11.07020569 C-1.11368977 7.15736261 -0.77557227 3.87786135 0 0 Z " fill="#1AA0ED" transform="translate(368,114)"/>
<path d="M0 0 C10.56 0 21.12 0 32 0 C33.34529749 2.69059499 33.12592516 4.76267876 33.12698364 7.77650452 C33.12980347 9.00627518 33.13262329 10.23604584 33.13552856 11.50308228 C33.1335841 12.87323013 33.13153592 14.24337783 33.12939453 15.61352539 C33.13074894 17.05060368 33.13252909 18.48768163 33.13470459 19.92475891 C33.13927382 23.83368249 33.13749156 27.74257975 33.1343255 31.6515038 C33.13179977 35.7349907 33.13413999 39.8184753 33.13571167 43.90196228 C33.13753253 50.7592713 33.13512902 57.61656956 33.13037109 64.47387695 C33.12492647 72.4127959 33.12669292 80.35168918 33.1321975 88.29060751 C33.13672841 95.09655416 33.13737935 101.90249306 33.13475883 108.70844072 C33.13319622 112.77789667 33.13300191 116.84734054 33.13629532 120.91679573 C33.13917379 124.74083222 33.13719879 128.56483545 33.13140106 132.38886833 C33.13007343 133.79621195 33.13046764 135.20355835 33.13266373 136.61090088 C33.13537501 138.52409264 33.1313806 140.43729049 33.12698364 142.35047913 C33.1264181 143.96018129 33.1264181 143.96018129 33.12584114 145.60240269 C33 148 33 148 32 149 C29.26129758 149.08857875 26.54725017 149.11530707 23.80859375 149.09765625 C23.08224731 149.09664917 22.35590088 149.09564209 21.60754395 149.09460449 C18.88417999 149.08935716 16.16083847 149.075396 13.4375 149.0625 C7.353125 149.041875 1.26875 149.02125 -5 149 C-5 168.47 -5 187.94 -5 208 C-10.63149637 205.74740145 -10.63149637 205.74740145 -13.41015625 203.35546875 C-14.00763672 202.84306641 -14.60511719 202.33066406 -15.22070312 201.80273438 C-16.13239258 201.00319336 -16.13239258 201.00319336 -17.0625 200.1875 C-17.97999023 199.40536133 -17.97999023 199.40536133 -18.91601562 198.60742188 C-22.33825307 195.64394924 -25.2899616 192.65618647 -28 189 C-25.36 189.33 -22.72 189.66 -20 190 C-20 190.66 -20 191.32 -20 192 C-19.34 192 -18.68 192 -18 192 C-17.70867187 192.60328125 -17.41734375 193.2065625 -17.1171875 193.828125 C-16.70726562 194.62734375 -16.29734375 195.4265625 -15.875 196.25 C-15.48054688 197.03890625 -15.08609375 197.8278125 -14.6796875 198.640625 C-12.56750037 201.60751111 -10.045739 203.05101471 -7 205 C-7.00444122 204.31761765 -7.00888245 203.63523529 -7.01345825 202.93217468 C-7.05763236 195.84355763 -7.08784178 188.75497955 -7.10986328 181.66625977 C-7.11993405 179.0191082 -7.13359136 176.37196779 -7.15087891 173.72485352 C-7.17507972 169.92461395 -7.18647228 166.12452119 -7.1953125 162.32421875 C-7.20563507 161.13664474 -7.21595764 159.94907074 -7.22659302 158.72550964 C-7.22674408 157.62459488 -7.22689514 156.52368011 -7.22705078 155.3894043 C-7.231492 154.41899704 -7.23593323 153.44858978 -7.24050903 152.44877625 C-7 150 -7 150 -5 147 C12.325 146.505 12.325 146.505 30 146 C30 98.48 30 50.96 30 2 C16.635 2.495 16.635 2.495 3 3 C3 37.98 3 72.96 3 109 C2.01 109.33 1.02 109.66 0 110 C-0.35412344 111.32796291 -0.68521554 112.66216607 -1 114 C-2.69271782 116.27111623 -3.57957148 116.93334943 -6.40943241 117.38196754 C-7.85044646 117.38693276 -7.85044646 117.38693276 -9.3205719 117.39199829 C-10.97580368 117.40863777 -10.97580368 117.40863777 -12.66447449 117.4256134 C-14.48100273 117.4211042 -14.48100273 117.4211042 -16.33422852 117.41650391 C-17.60917175 117.42508926 -18.88411499 117.43367462 -20.19769287 117.44252014 C-23.69550821 117.46586622 -27.19314617 117.47099386 -30.69102979 117.47317934 C-34.34835607 117.47883474 -38.00556629 117.50210397 -41.66282654 117.52377319 C-48.59123318 117.56231857 -55.51960667 117.58652363 -62.44809335 117.60489786 C-74.86230714 117.63828924 -87.27642154 117.69597239 -99.69051689 117.75888956 C-104.04953448 117.78041379 -108.40851765 117.7956649 -112.76757634 117.80572915 C-114.8240652 117.81104992 -116.8805332 117.81851713 -118.93701172 117.82688904 C-121.44834679 117.83691062 -123.95969994 117.8432858 -126.47105408 117.84544373 C-127.57172211 117.85089706 -128.67239014 117.8563504 -129.80641174 117.86196899 C-131.24686025 117.86580314 -131.24686025 117.86580314 -132.71640873 117.86971474 C-135.03110166 117.85074217 -135.03110166 117.85074217 -137 119 C-136.67 118.01 -136.34 117.02 -136 116 C-135.33370197 115.99761165 -134.66740395 115.99522329 -133.98091507 115.99276257 C-117.77301987 115.93364243 -101.56529286 115.85811168 -85.35756302 115.76428509 C-77.51963901 115.71930763 -69.68176065 115.67989753 -61.84375 115.65356445 C-55.01262655 115.63060009 -48.18164728 115.59721972 -41.35063815 115.55129844 C-37.73320035 115.52734494 -34.11590552 115.5086302 -30.4983902 115.50238609 C-26.46128456 115.49522268 -22.42467701 115.46480658 -18.38769531 115.43237305 C-17.18648041 115.43380814 -15.9852655 115.43524323 -14.74765015 115.4367218 C-13.09864212 115.41791458 -13.09864212 115.41791458 -11.4163208 115.39872742 C-9.9838545 115.39181397 -9.9838545 115.39181397 -8.52244949 115.38476086 C-5.51816933 114.92650415 -4.144305 114.13648337 -2 112 C-1.52218095 109.25322493 -1.30472113 106.88849092 -1.25390625 104.12817383 C-1.21083092 102.93529991 -1.21083092 102.93529991 -1.16688538 101.71832752 C-1.08450213 99.14539674 -1.03643503 96.57397286 -1 94 C-0.98781433 93.17023525 -0.97562866 92.3404705 -0.96307373 91.48556137 C-0.90034555 86.24578648 -0.90107085 81.0072786 -0.92483521 75.76724815 C-0.93785513 72.87020006 -0.9441764 69.97319885 -0.94897461 67.0761261 C-0.96025752 60.94656249 -0.97955618 54.81703898 -1 48.6875 C-1.02367614 41.53090009 -1.04398641 34.37432129 -1.05593872 27.21769142 C-1.06239654 24.36984426 -1.07489089 21.522065 -1.08764648 18.67424011 C-1.09127776 16.9334621 -1.09462964 15.19268347 -1.09765625 13.4519043 C-1.10282257 12.66594376 -1.10798889 11.87998322 -1.11331177 11.07020569 C-1.11368977 7.15736261 -0.77557227 3.87786135 0 0 Z " fill="#3E9FD7" transform="translate(368,114)"/>
<path d="M0 0 C3.70276652 -0.00162262 7.40552697 -0.00518717 11.10829163 -0.00918579 C16.97547411 -0.015015 22.8426305 -0.01528124 28.70981407 -0.01093674 C30.89823073 -0.00993674 33.08664873 -0.01053493 35.27506447 -0.01277542 C38.27512384 -0.01530335 41.27510799 -0.01155563 44.27516174 -0.00601196 C45.61043097 -0.00905209 45.61043097 -0.00905209 46.97267532 -0.01215363 C53.01413098 0.00908032 53.01413098 0.00908032 54.12843323 1.12338257 C54.22535386 3.26231524 54.25030125 5.40451224 54.24868774 7.54563904 C54.24996938 8.56372521 54.24996938 8.56372521 54.25127691 9.60237879 C54.25293364 11.89334183 54.24740723 14.18423283 54.24195862 16.47518921 C54.24167676 18.11078388 54.24183445 19.74637867 54.24240112 21.38197327 C54.24268916 25.83632843 54.23679147 30.29065691 54.22982717 34.74500585 C54.22359462 39.3948473 54.22298991 44.04468931 54.22180176 48.6945343 C54.21868815 57.50599959 54.21047436 66.31745254 54.20045227 75.12891239 C54.18929205 85.15776364 54.18378091 95.18661547 54.17875683 105.21547139 C54.16829177 125.85144868 54.15069176 146.48741485 54.12843323 167.12338257 C53.46121341 167.12761451 52.79399359 167.13184645 52.10655499 167.13620663 C35.88239043 167.23944668 19.65827185 167.34807444 3.43418407 167.46272182 C-4.41161418 167.51803374 -12.25741697 167.57151242 -20.10325623 167.62069702 C-26.94053803 167.66356373 -33.77778663 167.70984802 -40.61501712 167.76026112 C-44.23630298 167.78684201 -47.85758234 167.81169459 -51.47890663 167.83245659 C-55.51845321 167.85568033 -59.55790655 167.88653298 -63.59739685 167.9180603 C-64.80220703 167.92381577 -66.00701721 167.92957123 -67.24833679 167.9355011 C-68.34630081 167.94528992 -69.44426483 167.95507874 -70.57550049 167.96516418 C-72.00934947 167.97484301 -72.00934947 167.97484301 -73.47216511 167.98471737 C-76.01772339 168.02712009 -76.01772339 168.02712009 -78.87156677 169.12338257 C-78.87156677 168.13338257 -78.87156677 167.14338257 -78.87156677 166.12338257 C-35.31156677 166.12338257 8.24843323 166.12338257 53.12843323 166.12338257 C52.79843323 165.46338257 52.46843323 164.80338257 52.12843323 164.12338257 C52.03412041 162.00754026 52.00653179 159.88863352 52.00817871 157.77069092 C52.00689707 156.78194975 52.00689707 156.78194975 52.00558954 155.77323401 C52.00393647 153.55447372 52.00945329 151.33578829 52.01490784 149.11703491 C52.01518977 147.5305532 52.01503185 145.94407136 52.01446533 144.35758972 C52.0141776 140.04171874 52.02007037 135.72587536 52.02703929 131.41001081 C52.03327691 126.90298063 52.03387695 122.39594985 52.0350647 117.88891602 C52.0381768 109.35018678 52.04638858 100.8114703 52.05641419 92.27274668 C52.06757905 82.55341901 52.07308672 72.83409074 52.07810962 63.11475825 C52.08857128 43.1176259 52.10616841 23.12050504 52.12843323 3.12338257 C51.12484331 3.15334824 50.1212534 3.1833139 49.08725166 3.21418762 C45.31460459 3.32648859 41.54190896 3.43708184 37.76919746 3.54719543 C36.14555986 3.59481492 34.52193524 3.64287928 32.89832497 3.69142151 C21.26230278 4.03891008 9.64504945 4.24197289 -1.99656677 4.12338257 C-4.17632777 4.10302456 -6.35602044 4.08460495 -8.5358429 4.07235718 C-10.42138509 4.06170456 -12.30688391 4.0440098 -14.19236755 4.02572632 C-16.79115628 3.81601183 -16.79115628 3.81601183 -17.87156677 5.12338257 C-19.87115041 5.1641904 -21.87201931 5.16592613 -23.87156677 5.12338257 C-23.87156677 4.46338257 -23.87156677 3.80338257 -23.87156677 3.12338257 C-25.28514465 3.13123779 -25.28514465 3.13123779 -26.72727966 3.13925171 C-51.15553738 3.26094027 -75.5722194 3.03063847 -99.99656677 2.62338257 C-101.07265135 2.60544584 -101.07265135 2.60544584 -102.17047501 2.58714676 C-111.0709398 2.43826427 -119.97129818 2.28358766 -128.87156677 2.12338257 C-128.87156677 1.79338257 -128.87156677 1.46338257 -128.87156677 1.12338257 C-85.91481398 0.34031348 -42.96395491 0.01244039 0 0 Z " fill="#3BA2DD" transform="translate(305.87156677246094,54.876617431640625)"/>
<path d="M0 0 C0.33 0 0.66 0 1 0 C1.02332777 19.01876264 1.04097858 38.03752239 1.05181217 57.05629635 C1.05697539 65.88641271 1.06401857 74.71652019 1.07543945 83.54663086 C1.08538551 91.24012065 1.09185324 98.93360401 1.09408849 106.62710005 C1.09539574 110.70329652 1.09848243 114.77947461 1.10573006 118.85566521 C1.11248904 122.68787755 1.11461721 126.52006384 1.11310768 130.35228157 C1.11338406 131.76285061 1.11538991 133.17342047 1.11920547 134.58398438 C1.12414075 136.50165689 1.12239802 138.41934321 1.12025452 140.33702087 C1.12117631 141.41275329 1.1220981 142.4884857 1.12304783 143.59681606 C1 146 1 146 0 147 C-2.73870242 147.08857875 -5.45274983 147.11530707 -8.19140625 147.09765625 C-8.91775269 147.09664917 -9.64409912 147.09564209 -10.39245605 147.09460449 C-13.11582001 147.08935716 -15.83916153 147.075396 -18.5625 147.0625 C-24.646875 147.041875 -30.73125 147.02125 -37 147 C-37 166.47 -37 185.94 -37 206 C-42.63149637 203.74740145 -42.63149637 203.74740145 -45.41015625 201.35546875 C-46.00763672 200.84306641 -46.60511719 200.33066406 -47.22070312 199.80273438 C-47.82849609 199.26970703 -48.43628906 198.73667969 -49.0625 198.1875 C-49.97999023 197.40536133 -49.97999023 197.40536133 -50.91601562 196.60742188 C-54.33825307 193.64394924 -57.2899616 190.65618647 -60 187 C-57.36 187.33 -54.72 187.66 -52 188 C-52 188.66 -52 189.32 -52 190 C-51.34 190 -50.68 190 -50 190 C-49.70867187 190.60328125 -49.41734375 191.2065625 -49.1171875 191.828125 C-48.70726562 192.62734375 -48.29734375 193.4265625 -47.875 194.25 C-47.48054688 195.03890625 -47.08609375 195.8278125 -46.6796875 196.640625 C-44.56750037 199.60751111 -42.045739 201.05101471 -39 203 C-39.00444122 202.31761765 -39.00888245 201.63523529 -39.01345825 200.93217468 C-39.05763236 193.84355763 -39.08784178 186.75497955 -39.10986328 179.66625977 C-39.11993405 177.0191082 -39.13359136 174.37196779 -39.15087891 171.72485352 C-39.17507972 167.92461395 -39.18647228 164.12452119 -39.1953125 160.32421875 C-39.20563507 159.13664474 -39.21595764 157.94907074 -39.22659302 156.72550964 C-39.22674408 155.62459488 -39.22689514 154.52368011 -39.22705078 153.3894043 C-39.231492 152.41899704 -39.23593323 151.44858978 -39.24050903 150.44877625 C-39 148 -39 148 -37 145 C-25.12 144.67 -13.24 144.34 -1 144 C-0.67 96.48 -0.34 48.96 0 0 Z " fill="#4D94BF" transform="translate(400,116)"/>
<path d="M0 0 C0.66 0.99 1.32 1.98 2 3 C1.34 4.32 0.68 5.64 0 7 C6.96017384 6.88270883 13.92018245 6.75787295 20.88012695 6.62768555 C23.24988708 6.5842619 25.61968 6.54259251 27.98950195 6.50268555 C31.38763333 6.44516232 34.78559843 6.38141697 38.18359375 6.31640625 C39.25024765 6.29969376 40.31690155 6.28298126 41.4158783 6.26576233 C42.39681961 6.24581711 43.37776093 6.22587189 44.38842773 6.20532227 C45.25668686 6.18977798 46.12494598 6.1742337 47.01951599 6.15821838 C49.00080779 6.21537575 49.00080779 6.21537575 50 5 C52.44830426 4.91156207 54.86820599 4.88471248 57.31640625 4.90234375 C58.41298805 4.90446617 58.41298805 4.90446617 59.53172302 4.90663147 C61.87535632 4.91224592 64.21889539 4.92480078 66.5625 4.9375 C68.14778508 4.94251314 69.73307166 4.94707637 71.31835938 4.95117188 C75.2122761 4.96222003 79.10612205 4.97949428 83 5 C83 5.66 83 6.32 83 7 C84.98 6.34 86.96 5.68 89 5 C90.33333333 7.66666667 91.66666667 10.33333333 93 13 C92.42508945 12.6757435 91.85017891 12.35148701 91.25784683 12.01740456 C88.9000596 10.95496602 87.43625096 10.74164595 84.87445068 10.7215271 C83.65456451 10.70478188 83.65456451 10.70478188 82.41003418 10.68769836 C81.52674438 10.68553818 80.64345459 10.68337799 79.73339844 10.68115234 C78.79647156 10.67110672 77.85954468 10.6610611 76.89422607 10.65071106 C73.79928192 10.61983568 70.70442445 10.6028317 67.609375 10.5859375 C65.4627406 10.56722937 63.31611358 10.54765623 61.16949463 10.5272522 C55.52083687 10.47588758 49.87215526 10.43628494 44.22338867 10.39910889 C38.45876138 10.35909645 32.69423368 10.3079915 26.9296875 10.2578125 C15.61986159 10.1610019 4.3099795 10.07661347 -7 10 C-7 7 -7 7 -5.46875 5.17578125 C-4.8190625 4.56089844 -4.169375 3.94601562 -3.5 3.3125 C-2.8503125 2.68988281 -2.200625 2.06726563 -1.53125 1.42578125 C-0.77328125 0.72001953 -0.77328125 0.72001953 0 0 Z " fill="#289FE4" transform="translate(205,253)"/>
<path d="M0 0 C0.33 0 0.66 0 1 0 C1 54.78 1 109.56 1 166 C-63.8125 166.4375 -63.8125 166.4375 -84.29614258 166.56811523 C-90.34219074 166.61135655 -90.34219074 166.61135655 -96.38822937 166.65589905 C-99.08643467 166.67515186 -101.78460786 166.69282867 -104.48283386 166.70826721 C-108.56388228 166.7317241 -112.64483788 166.76291266 -116.72583008 166.79467773 C-117.93292287 166.80044799 -119.14001566 166.80621824 -120.38368702 166.81216335 C-121.47936843 166.82193738 -122.57504984 166.83171141 -123.70393372 166.84178162 C-125.1377827 166.85146044 -125.1377827 166.85146044 -126.60059834 166.8613348 C-129.14615662 166.90373752 -129.14615662 166.90373752 -132 168 C-132 167.01 -132 166.02 -132 165 C-88.44 165 -44.88 165 0 165 C0 110.55 0 56.1 0 0 Z " fill="#4698C5" transform="translate(359,56)"/>
<path d="M0 0 C0.95885101 -0.00315216 1.91770203 -0.00630432 2.90560913 -0.009552 C4.46174423 -0.00651566 4.46174423 -0.00651566 6.04931641 -0.00341797 C7.66140488 -0.00485306 7.66140488 -0.00485306 9.30606079 -0.00631714 C11.58750466 -0.00699848 13.86895046 -0.00514739 16.15039062 -0.00097656 C19.60242216 0.00432018 23.05432046 -0.00089586 26.50634766 -0.00732422 C47.92007231 -0.01315362 47.92007231 -0.01315362 58.27587891 1.12939453 C58.27587891 2.11939453 58.27587891 3.10939453 58.27587891 4.12939453 C51.75122943 4.15510209 45.22659338 4.1724085 38.7019043 4.18432617 C36.48998527 4.18930327 34.27806944 4.19608735 32.06616211 4.20483398 C19.09543995 4.25477787 6.21269062 4.11665703 -6.72412109 3.12939453 C-6.72412109 6.09939453 -6.72412109 9.06939453 -6.72412109 12.12939453 C-7.05412109 12.12939453 -7.38412109 12.12939453 -7.72412109 12.12939453 C-7.72412109 8.49939453 -7.72412109 4.86939453 -7.72412109 1.12939453 C-4.83203634 0.16536628 -3.00558327 0.00283868 0 0 Z " fill="#3DA0D8" transform="translate(117.72412109375,54.87060546875)"/>
<path d="M0 0 C0.99 0.33 1.98 0.66 3 1 C2.54625 1.391875 2.0925 1.78375 1.625 2.1875 C-2.51428296 6.80439254 -2.42841791 12.15402503 -2.3125 18.05859375 C-1.71364186 23.695346 0.84107654 27.15888409 5.0625 30.875 C10.57861885 34.86538385 16.40296309 34.84304566 23 34 C28.70469616 31.71980434 32.9833245 28.04783351 35.42578125 22.3671875 C36.57372571 17.63484502 36.28972364 12.8287274 36 8 C36.99 8.66 37.98 9.32 39 10 C39.80838742 15.8064817 39.89079691 22.82065554 37 28 C32.14240065 33.13578786 28.71035122 35.77772089 21.609375 36.203125 C5.95874917 36.39321357 5.95874917 36.39321357 0.4140625 31.640625 C-1.85443559 29.20919611 -2.95164558 27.44486068 -3.3125 24.125 C-3.209375 23.42375 -3.10625 22.7225 -3 22 C-3.66 22 -4.32 22 -5 22 C-6.77054624 18.95882646 -7.20887055 16.87618352 -7.0625 13.375 C-6.88561667 10.05753853 -6.88561667 10.05753853 -8 7 C-6.68 7 -5.36 7 -4 7 C-3.71125 6.401875 -3.4225 5.80375 -3.125 5.1875 C-2 3 -2 3 0 0 Z " fill="#378FC1" transform="translate(218,124)"/>
<path d="M0 0 C0.99 0 1.98 0 3 0 C3.33 19.8 3.66 39.6 4 60 C10.53576165 57.71183213 10.53576165 57.71183213 13 55 C13.99 55.33 14.98 55.66 16 56 C11.95976698 60.25539336 8.09150344 64.03982358 3 67 C2.34 67 1.68 67 1 67 C0.0240935 52.26018101 -0.12136452 37.58083006 -0.0625 22.8125 C-0.05746878 20.58658956 -0.05290877 18.36067801 -0.04882812 16.13476562 C-0.03796529 10.75648546 -0.02135898 5.37824821 0 0 Z " fill="#42A1DA" transform="translate(151,222)"/>
<path d="M0 0 C0.99 0.33 1.98 0.66 3 1 C2.071875 2.051875 2.071875 2.051875 1.125 3.125 C-2.22848728 7.66207102 -3.55672743 12.09603 -3.37109375 17.78515625 C-2.3514313 23.87093106 0.55935129 29.43791963 5.5625 33.125 C10.80030693 35.89737418 16.243097 35.95948383 22 35 C27.7509568 32.79671136 30.97566396 29.35074838 34 24 C34.66 23.01 35.32 22.02 36 21 C35.40380045 25.86896303 34.43023178 30.32790951 33 35 C30.94017141 35.51495715 28.88244533 36.02686964 26.8125 36.5 C24.99436859 36.84109624 24.99436859 36.84109624 24 38 C21.50761431 38.12653198 19.05529559 38.18519825 16.5625 38.1875 C15.52125977 38.20586914 15.52125977 38.20586914 14.45898438 38.22460938 C12.63779099 38.22989842 10.8171308 38.12169207 9 38 C8.34 37.34 7.68 36.68 7 36 C6.154375 35.690625 5.30875 35.38125 4.4375 35.0625 C3.2309375 34.5365625 3.2309375 34.5365625 2 34 C1.505 32.515 1.505 32.515 1 31 C0.01 30.67 -0.98 30.34 -2 30 C-4.29013653 26.5647952 -4.17842973 25.014669 -4 21 C-4.66 21 -5.32 21 -6 21 C-7.62246255 15.92980452 -7.63261453 11.44974162 -5.5 6.5625 C-5.005 5.716875 -4.51 4.87125 -4 4 C-3.34 4 -2.68 4 -2 4 C-1.34 2.68 -0.68 1.36 0 0 Z " fill="#3995C8" transform="translate(284,123)"/>
<path d="M0 0 C43.89 0 87.78 0 133 0 C133 0.33 133 0.66 133 1 C132.33278018 1.00423194 131.66556036 1.00846388 130.97812176 1.01282406 C114.75395721 1.11606411 98.52983863 1.22469187 82.30575085 1.33933926 C74.4599526 1.39465117 66.6141498 1.44812985 58.76831055 1.49731445 C51.93102874 1.54018116 45.09378014 1.58646545 38.25654966 1.63687855 C34.63526379 1.66345944 31.01398443 1.68831202 27.39266014 1.70907402 C23.35311356 1.73229776 19.31366023 1.76315041 15.27416992 1.79467773 C14.06935974 1.8004332 12.86454956 1.80618866 11.62322998 1.81211853 C10.52526596 1.82190735 9.42730194 1.83169617 8.29606628 1.84178162 C6.8622173 1.85146044 6.8622173 1.85146044 5.39940166 1.8613348 C2.85384338 1.90373752 2.85384338 1.90373752 0 3 C0 2.01 0 1.02 0 0 Z " fill="#3690C4" transform="translate(227,221)"/>
<path d="M0 0 C0.33 0 0.66 0 1 0 C1 18.48 1 36.96 1 56 C-8.3871332 54.12257336 -15.21813673 46.34452902 -21 39 C-18.36 39.33 -15.72 39.66 -13 40 C-13 40.66 -13 41.32 -13 42 C-12.34 42 -11.68 42 -11 42 C-10.70867187 42.60328125 -10.41734375 43.2065625 -10.1171875 43.828125 C-9.50230469 45.02695312 -9.50230469 45.02695312 -8.875 46.25 C-8.48054688 47.03890625 -8.08609375 47.8278125 -7.6796875 48.640625 C-5.70460416 51.71132578 -5.70460416 51.71132578 0 55 C0 36.85 0 18.7 0 0 Z " fill="#3EA1D7" transform="translate(361,264)"/>
<path d="M0 0 C1.65 0 3.3 0 5 0 C1.73147592 4.18779647 -1.73302725 7.64717209 -5.7734375 11.08984375 C-8.16319344 13.14000279 -10.48690325 15.25243154 -12.8125 17.375 C-18.05522376 22.11220452 -23.49413388 26.57227877 -29 31 C-29 28 -29 28 -28 25 C-26.66666667 24.66666667 -25.33333333 24.33333333 -24 24 C-23.67 23.01 -23.34 22.02 -23 21 C-21.35666496 19.96210419 -19.68756133 18.96432076 -18 18 C-15.59120835 15.93532144 -15.03668447 15.11005341 -14 12 C-13.34 12 -12.68 12 -12 12 C-12 11.01 -12 10.02 -12 9 C-10.35 9 -8.7 9 -7 9 C-6.67 7.68 -6.34 6.36 -6 5 C-4.68 5 -3.36 5 -2 5 C-2 4.34 -2 3.68 -2 3 C-1.01 3 -0.02 3 1 3 C0.67 2.01 0.34 1.02 0 0 Z " fill="#3999CF" transform="translate(222,224)"/>
<path d="M0 0 C0.66 0.99 1.32 1.98 2 3 C1.030625 3.61875 0.06125 4.2375 -0.9375 4.875 C-4.02835362 6.65678846 -4.02835362 6.65678846 -5 9 C25.69 9 56.38 9 88 9 C88 9.33 88 9.66 88 10 C56.65 10 25.3 10 -7 10 C-7 7 -7 7 -5.46875 5.17578125 C-4.8190625 4.56089844 -4.169375 3.94601562 -3.5 3.3125 C-2.8503125 2.68988281 -2.200625 2.06726563 -1.53125 1.42578125 C-0.77328125 0.72001953 -0.77328125 0.72001953 0 0 Z " fill="#4693B9" transform="translate(205,253)"/>
<path d="M0 0 C2.50577842 2.50577842 2.28673131 4.0940383 2.32226562 7.52148438 C2.31904297 8.23626953 2.31582031 8.95105469 2.3125 9.6875 C2.32861328 10.38294922 2.34472656 11.07839844 2.36132812 11.79492188 C2.36684545 17.7039773 1.2363423 22.37294042 -2.69921875 26.99609375 C-9.95631617 32.25713294 -17.41384703 31.76214167 -26 31 C-29.39914975 29.86695008 -30.05254451 28.87481525 -32 26 C-31.67 25.34 -31.34 24.68 -31 24 C-30.401875 24.474375 -29.80375 24.94875 -29.1875 25.4375 C-24.30888759 28.92222315 -18.7563175 28.45422878 -13 28 C-7.74354451 26.1505064 -4.03190749 22.94976914 -0.8671875 18.35546875 C0.41827796 14.86386663 0.209202 11.41602536 0.125 7.75 C0.11597656 7.00492188 0.10695312 6.25984375 0.09765625 5.4921875 C0.07418358 3.66131941 0.03831525 1.83061762 0 0 Z " fill="#3398D0" transform="translate(188,130)"/>
<path d="M0 0 C0 2.97 0 5.94 0 9 C4.89562693 7.12297673 4.89562693 7.12297673 9 4 C9.99 4.33 10.98 4.66 12 5 C7.95976698 9.25539336 4.09150344 13.03982358 -1 16 C-1.66 16 -2.32 16 -3 16 C-3 11.05 -3 6.1 -3 1 C-1 0 -1 0 0 0 Z " fill="#2DA2E2" transform="translate(155,273)"/>
<path d="M0 0 C4.47170442 1.7112673 8.8308484 4.79687184 11.83984375 8.53125 C12.27734375 11.90625 12.27734375 11.90625 11.83984375 14.53125 C11.25203125 13.6959375 11.25203125 13.6959375 10.65234375 12.84375 C6.24460884 7.22008821 2.02646183 3.31019264 -5.29296875 2.2109375 C-11.33758581 1.89501675 -15.87550781 3.73276004 -21.16015625 6.53125 C-17.44113612 -2.45638197 -8.4361305 -1.83062506 0 0 Z " fill="#3A92C4" transform="translate(242.16015625,117.46875)"/>
<path d="M0 0 C2.54283234 -0.10871967 5.08095088 -0.18762401 7.625 -0.25 C8.33785156 -0.28351563 9.05070313 -0.31703125 9.78515625 -0.3515625 C15.86217897 -0.4630675 19.22603206 1.41559707 23.71484375 5.59765625 C24.8881239 7.00334333 25.94785461 8.5014899 27 10 C26.67 10.99 26.34 11.98 26 13 C25.64808594 12.52949219 25.29617187 12.05898437 24.93359375 11.57421875 C20.95779602 6.56035373 17.4183984 3.63803587 10.8359375 2.6875 C5.60388805 2.39982718 2.10168135 3.53899119 -2.37109375 6.22265625 C-2.90863281 6.47917969 -3.44617188 6.73570313 -4 7 C-4.66 6.67 -5.32 6.34 -6 6 C-5.67 5.01 -5.34 4.02 -5 3 C-3.35 2.67 -1.7 2.34 0 2 C0 1.34 0 0.68 0 0 Z " fill="#3299D8" transform="translate(161,117)"/>
<path d="M0 0 C1.65 0 3.3 0 5 0 C-0.41850272 6.81183199 -6.21745948 11.10872974 -14 15 C-14 14.01 -14 13.02 -14 12 C-13.34 12 -12.68 12 -12 12 C-12 11.01 -12 10.02 -12 9 C-10.35 9 -8.7 9 -7 9 C-6.67 7.68 -6.34 6.36 -6 5 C-4.68 5 -3.36 5 -2 5 C-2 4.34 -2 3.68 -2 3 C-1.01 3 -0.02 3 1 3 C0.67 2.01 0.34 1.02 0 0 Z " fill="#259EDF" transform="translate(222,224)"/>
<path d="M0 0 C1.6396875 0.99 1.6396875 0.99 3.3125 2 C8.47257607 4.57545538 13.33473049 4.75363677 19 4 C22.40241824 2.6351132 22.40241824 2.6351132 25 1 C25.99 1 26.98 1 28 1 C21.76308529 6.50316004 16.56588929 7.22383049 8.48828125 7.16796875 C6 7 6 7 3 6 C0 2.55555556 0 2.55555556 0 0 Z " fill="#3791C3" transform="translate(156,154)"/>
<path d="M0 0 C0.99 0.33 1.98 0.66 3 1 C2.3503125 1.556875 2.3503125 1.556875 1.6875 2.125 C-3.58482533 7.98313926 -3.64694642 14.47630646 -4 22 C-6.59825284 19.02085146 -7.34917215 17.31779252 -7.125 13.375 C-6.89768345 10.05827901 -6.89768345 10.05827901 -8 7 C-6.68 7 -5.36 7 -4 7 C-3.71125 6.401875 -3.4225 5.80375 -3.125 5.1875 C-2 3 -2 3 0 0 Z " fill="#2D9BD8" transform="translate(218,124)"/>
<path d="M0 0 C0.99 0.66 1.98 1.32 3 2 C3.80838742 7.8064817 3.89079691 14.82065554 1 20 C-1.52631123 22.52115549 -4.19532538 24.7953953 -7 27 C-7.66 26.67 -8.32 26.34 -9 26 C-8.43410156 25.57589844 -7.86820313 25.15179688 -7.28515625 24.71484375 C-2.58758403 21.03097348 -2.58758403 21.03097348 0 15.8125 C0 14.554375 0 13.29625 0 12 C0.01160156 10.97390625 0.02320313 9.9478125 0.03515625 8.890625 C0.05951785 5.92546992 0.04381502 2.96481616 0 0 Z " fill="#239EE7" transform="translate(254,132)"/>
<path d="M0 0 C0 3 0 3 -1.4375 5.6875 C-4.13870478 11.41405413 -4.60912281 15.80955183 -2.6875 21.75 C-1.6354616 24.60333342 -0.39365129 27.29789882 1 30 C-2.35539326 27.88080426 -3.83994709 26.385582 -5.375 22.6875 C-6.59597111 16.42854132 -6.46005569 9.18506005 -5 3 C-2.44140625 1.05078125 -2.44140625 1.05078125 0 0 Z " fill="#3C97C3" transform="translate(154,124)"/>
<path d="M0 0 C2.64 0.33 5.28 0.66 8 1 C8 1.99 8 2.98 8 4 C9.32 4.33 10.64 4.66 12 5 C12.96205088 11.37358711 13.10655578 17.55929529 13 24 C12.67 24 12.34 24 12 24 C11.90203125 23.13117188 11.8040625 22.26234375 11.703125 21.3671875 C10.67132368 12.45184215 10.67132368 12.45184215 6 5 C4.04148656 3.60644236 2.04872887 2.25717453 0 1 C0 0.67 0 0.34 0 0 Z " fill="#3598CD" transform="translate(308,120)"/>
<path d="M0 0 C1.32 0 2.64 0 4 0 C4.66 1.65 5.32 3.3 6 5 C4.06729553 6.93270447 0.59693119 6.65374251 -2 7 C-3.66934283 7.31966139 -5.3373217 7.64731066 -7 8 C-6.02133662 6.85373678 -5.04205413 5.70800212 -4.0625 4.5625 C-3.51722656 3.92441406 -2.97195312 3.28632813 -2.41015625 2.62890625 C-1.63204305 1.73008851 -0.84063472 0.84063472 0 0 Z " fill="#2A9BD9" transform="translate(229,232)"/>
<path d="M0 0 C2.64 0.33 5.28 0.66 8 1 C8 1.66 8 2.32 8 3 C8.66 3 9.32 3 10 3 C10.99 5.31 11.98 7.62 13 10 C9.39811284 9.40912862 7.49874402 7.98667144 4.8125 5.5625 C4.11769531 4.94503906 3.42289062 4.32757813 2.70703125 3.69140625 C1 2 1 2 0 0 Z " fill="#309AD8" transform="translate(340,303)"/>
<path d="M0 0 C0.12375 0.928125 0.12375 0.928125 0.25 1.875 C0.81258459 4.18437567 0.81258459 4.18437567 3.0625 5.25 C3.701875 5.4975 4.34125 5.745 5 6 C1.53777385 7.06723961 -1.64039266 7.10173486 -5.25 7.0625 C-6.32765625 7.05347656 -7.4053125 7.04445313 -8.515625 7.03515625 C-9.33546875 7.02355469 -10.1553125 7.01195313 -11 7 C-10.67 6.01 -10.34 5.02 -10 4 C-5.545 3.505 -5.545 3.505 -1 3 C-0.67 2.01 -0.34 1.02 0 0 Z " fill="#3299D3" transform="translate(303,113)"/>
<path d="M0 0 C0.66 0.33 1.32 0.66 2 1 C1.27683594 1.77923828 1.27683594 1.77923828 0.5390625 2.57421875 C-4.1876792 7.69507421 -4.1876792 7.69507421 -7 14 C-9.97 13.505 -9.97 13.505 -13 13 C-9.0580583 8.11950075 -4.88049925 3.9419417 0 0 Z " fill="#3295CF" transform="translate(220,240)"/>
<path d="M0 0 C0.99 0.33 1.98 0.66 3 1 C2.360625 1.763125 1.72125 2.52625 1.0625 3.3125 C-1.14232781 5.88246713 -1.14232781 5.88246713 -2 9 C-2.99 9.495 -2.99 9.495 -4 10 C-4.4683265 12.58605332 -4.4683265 12.58605332 -4.625 15.5625 C-4.69976562 16.57441406 -4.77453125 17.58632812 -4.8515625 18.62890625 C-4.90054687 19.41136719 -4.94953125 20.19382813 -5 21 C-7.11810948 17.1350831 -7.38277606 14.44020228 -7 10 C-5.5 6.5625 -5.5 6.5625 -4 4 C-3.34 4 -2.68 4 -2 4 C-1.34 2.68 -0.68 1.36 0 0 Z " fill="#29A0E4" transform="translate(284,123)"/>
<path d="M0 0 C3.65316671 1.24976756 4.78065836 1.67098753 7 5 C7.9590625 5.4640625 7.9590625 5.4640625 8.9375 5.9375 C11 7 11 7 12.4375 8.9375 C14.30511839 11.40275628 16.30127293 12.54122861 19 14 C18.67 14.99 18.34 15.98 18 17 C15.74504149 15.10981419 13.49607317 13.21319486 11.25 11.3125 C10.61578125 10.78205078 9.9815625 10.25160156 9.328125 9.70507812 C5.80105295 6.71074092 2.75727273 3.75295455 0 0 Z " fill="#3C96CB" transform="translate(317,283)"/>
<path d="M0 0 C0.33 0 0.66 0 1 0 C0.40380045 4.86896303 -0.56976822 9.32790951 -2 14 C-5.75 15.125 -5.75 15.125 -8 14 C-6.36863369 11.22667728 -4.68515207 8.53698833 -2.875 5.875 C-0.89299404 3.10124779 -0.89299404 3.10124779 0 0 Z " fill="#2D95D0" transform="translate(319,144)"/>
<path d="M0 0 C0.99 0 1.98 0 3 0 C3 0.99 3 1.98 3 3 C4.32 2.67 5.64 2.34 7 2 C7 2.66 7 3.32 7 4 C-0.59 4 -8.18 4 -16 4 C-16 3.67 -16 3.34 -16 3 C-14.39318359 2.80083984 -14.39318359 2.80083984 -12.75390625 2.59765625 C-11.35674231 2.4194944 -9.95960841 2.24109681 -8.5625 2.0625 C-7.85544922 1.97548828 -7.14839844 1.88847656 -6.41992188 1.79882812 C-2.91182032 1.61783809 -2.91182032 1.61783809 0 0 Z " fill="#259FE6" transform="translate(352,217)"/>
<path d="M0 0 C0.99 0 1.98 0 3 0 C3.33 4.95 3.66 9.9 4 15 C3.01 15.33 2.02 15.66 1 16 C1.01160156 15.43152344 1.02320313 14.86304688 1.03515625 14.27734375 C1.09223194 9.39329516 0.81956772 4.81496035 0 0 Z " fill="#2BB0E6" transform="translate(367,208)"/>
<path d="M0 0 C1.4540625 0.0309375 1.4540625 0.0309375 2.9375 0.0625 C-0.67501516 4.62298012 -4.05047445 8.07915146 -9.0625 11.0625 C-8.25 9.125 -8.25 9.125 -7.0625 7.0625 C-6.0725 6.7325 -5.0825 6.4025 -4.0625 6.0625 C-4.083125 5.258125 -4.10375 4.45375 -4.125 3.625 C-4.03366838 -0.11959638 -3.80090148 0.07756942 0 0 Z " fill="#3A99CE" transform="translate(189.0625,254.9375)"/>
<path d="M0 0 C-1.78628831 1.67277835 -3.5785075 3.33824443 -5.375 5 C-6.13683594 5.71542969 -6.13683594 5.71542969 -6.9140625 6.4453125 C-10.7734375 10 -10.7734375 10 -13 10 C-12.67 8.68 -12.34 7.36 -12 6 C-10.68 5.67 -9.36 5.34 -8 5 C-8 4.01 -8 3.02 -8 2 C-3.71900826 -1.23966942 -3.71900826 -1.23966942 0 0 Z " fill="#3F97C2" transform="translate(180,267)"/>
<path d="M0 0 C0.66 0.33 1.32 0.66 2 1 C-4.435 6.94 -4.435 6.94 -11 13 C-11.33 12.01 -11.66 11.02 -12 10 C-8.29909479 6.0747975 -4.45040344 3.05419844 0 0 Z " fill="#3E94C7" transform="translate(214,234)"/>
<path d="M0 0 C0.33 0 0.66 0 1 0 C1 3.63 1 7.26 1 11 C2.98 10.67 4.96 10.34 7 10 C5.37660195 11.70884005 3.70680947 13.37446717 2 15 C1.34 15 0.68 15 0 15 C0 10.05 0 5.1 0 0 Z " fill="#4C9BC7" transform="translate(152,274)"/>
<path d="M0 0 C1.75570312 0.04060547 1.75570312 0.04060547 3.546875 0.08203125 C4.43890625 0.11683594 5.3309375 0.15164062 6.25 0.1875 C6.25 0.5175 6.25 0.8475 6.25 1.1875 C5.198125 1.20876953 5.198125 1.20876953 4.125 1.23046875 C-2.800196 1.5786104 -7.26321142 2.92698508 -12.75 7.1875 C-10.11301923 0.81479647 -6.65986232 -0.19979587 0 0 Z " fill="#2F97D4" transform="translate(233.75,116.8125)"/>
<path d="M0 0 C1.9453125 0.2421875 1.9453125 0.2421875 4.125 0.875 C4.84945312 1.07867187 5.57390625 1.28234375 6.3203125 1.4921875 C6.87460938 1.65976563 7.42890625 1.82734375 8 2 C8 2.99 8 3.98 8 5 C1.07 4.505 1.07 4.505 -6 4 C-4.68 3.34 -3.36 2.68 -2 2 C-1.34 1.34 -0.68 0.68 0 0 Z " fill="#259FE8" transform="translate(145,217)"/>
<path d="M0 0 C1.32 0.99 2.64 1.98 4 3 C4.33543224 6.75684104 4.19334591 9.41996227 3 13 C2.34 13 1.68 13 1 13 C0.67 8.71 0.34 4.42 0 0 Z " fill="#269BE2" transform="translate(320,131)"/>
<path d="M0 0 C3.07522923 -0.45003355 5.21819177 -0.47194521 7.921875 1.16015625 C10.90509679 3.57015567 12.73120412 5.17569264 13.9375 8.875 C13.958125 9.57625 13.97875 10.2775 14 11 C13.29875 10.2575 12.5975 9.515 11.875 8.75 C9.0719981 6.06886775 6.27322945 4.0635577 3 2 C2.01 1.34 1.02 0.68 0 0 Z " fill="#3F95C7" transform="translate(174,119)"/>
<path d="M0 0 C1.32 0 2.64 0 4 0 C4 0.66 4 1.32 4 2 C4.66 2 5.32 2 6 2 C7.5078125 3.53125 7.5078125 3.53125 9.125 5.5 C9.66382813 6.1496875 10.20265625 6.799375 10.7578125 7.46875 C11.37269531 8.22671875 11.37269531 8.22671875 12 9 C8.0557333 9 7.17603973 7.68625863 4.3125 5.0625 C3.50425781 4.33160156 2.69601562 3.60070312 1.86328125 2.84765625 C1.24839844 2.23792969 0.63351562 1.62820313 0 1 C0 0.67 0 0.34 0 0 Z " fill="#379BCE" transform="translate(304,272)"/>
<path d="M0 0 C0.33 0 0.66 0 1 0 C1 5.94 1 11.88 1 18 C0.01 18 -0.98 18 -2 18 C-1.34 12.06 -0.68 6.12 0 0 Z " fill="#2FB1E8" transform="translate(153,256)"/>
<path d="M0 0 C1.485 0.99 1.485 0.99 3 2 C3.3984375 4.3125 3.3984375 4.3125 3.375 7 C3.38273437 7.886875 3.39046875 8.77375 3.3984375 9.6875 C3.26695312 10.450625 3.13546875 11.21375 3 12 C2.01 12.66 1.02 13.32 0 14 C0 9.38 0 4.76 0 0 Z " fill="#3091C8" transform="translate(254,132)"/>
<path d="M0 0 C0.33 0 0.66 0 1 0 C1 4.95 1 9.9 1 15 C-4 13 -4 13 -5 11 C-3.68 10.67 -2.36 10.34 -1 10 C-0.67 6.7 -0.34 3.4 0 0 Z " fill="#289CE2" transform="translate(360,304)"/>
<path d="M0 0 C1.65 0 3.3 0 5 0 C1.93906776 3.93548431 -0.49115974 6.68116787 -5 9 C-4 7 -3 5 -2 3 C-1.01 3 -0.02 3 1 3 C0.67 2.01 0.34 1.02 0 0 Z " fill="#3493C9" transform="translate(222,224)"/>
<path d="M0 0 C4.95696581 1.23924145 7.11658466 2.78577758 10 7 C9.67 7.66 9.34 8.32 9 9 C8.2575 8.21625 7.515 7.4325 6.75 6.625 C4.45566682 4.43495469 2.87841142 3.17268614 0 2 C0 1.34 0 0.68 0 0 Z " fill="#24A0DE" transform="translate(315,280)"/>
<path d="M0 0 C-5.4 3.6 -5.4 3.6 -8 5 C-8.66 4.67 -9.32 4.34 -10 4 C-9.67 3.01 -9.34 2.02 -9 1 C-5.8035914 -0.06546953 -3.34252724 -0.07427838 0 0 Z " fill="#3B93C6" transform="translate(165,119)"/>
<path d="M0 0 C0.66 0.99 1.32 1.98 2 3 C0.576875 3.928125 0.576875 3.928125 -0.875 4.875 C-3.94445109 6.81970969 -3.94445109 6.81970969 -6 9 C-5.52797514 4.75177626 -3.03344482 2.80010291 0 0 Z " fill="#3B93C6" transform="translate(205,253)"/>
<path d="M0 0 C0.99 0.33 1.98 0.66 3 1 C2.071875 2.1446875 2.071875 2.1446875 1.125 3.3125 C-1.05597052 5.99625809 -1.05597052 5.99625809 -3 9 C-2.25 2.25 -2.25 2.25 0 0 Z " fill="#3C96C2" transform="translate(284,123)"/>
<path d="M0 0 C4.87685861 1.35468295 6.48592381 3.71675909 9 8 C4.7257442 6.4169423 2.73468206 3.49431596 0 0 Z " fill="#4A9AC7" transform="translate(317,283)"/>
<path d="M0 0 C0.99 0.33 1.98 0.66 3 1 C-0.465 3.97 -0.465 3.97 -4 7 C-2.92598892 4.08482708 -2.22189824 2.22189824 0 0 Z " fill="#4696C8" transform="translate(164,277)"/>
<path d="M0 0 C0.66 0.33 1.32 0.66 2 1 C2 2.65 2 4.3 2 6 C1.01 6.33 0.02 6.66 -1 7 C-1.04254356 5.00045254 -1.04080783 2.99958364 -1 1 C-0.67 0.67 -0.34 0.34 0 0 Z " fill="#2EA0E2" transform="translate(369,217)"/>
</svg>
